<svg width="125" height="106" viewBox="0 0 125 106" fill="none" xmlns="http://www.w3.org/2000/svg">
<mask id="path-1-outside-1_35_2" maskUnits="userSpaceOnUse" x="-0.320007" y="-0.255005" width="125" height="106" fill="black">
<rect fill="white" x="-0.320007" y="-0.255005" width="125" height="106"/>
<path d="M12.305 104.607C9.20166 104.607 6.54166 103.499 4.32499 101.282C2.10833 99.0653 0.999993 96.4053 0.999993 93.302C0.999993 90.0213 2.15266 87.317 4.45799 85.189C6.76333 83.061 9.37899 81.997 12.305 81.997C15.231 81.997 17.8467 83.061 20.152 85.189C22.4573 87.317 23.61 90.0213 23.61 93.302C23.61 96.4053 22.5017 99.0653 20.285 101.282C18.0683 103.499 15.4083 104.607 12.305 104.607ZM25.738 102.745V101.415C27.4227 101.238 29.1073 100.44 30.792 99.021C32.5653 97.5137 34.2057 95.6517 35.713 93.435C37.2203 91.2183 38.373 89.046 39.171 86.918L74.283 0.999989H75.48L110.06 86.918C113.961 96.5827 118.306 101.415 123.094 101.415H123.493V102.745H80.933V101.415H81.465C85.455 101.415 88.115 100.218 89.445 97.824C90.8637 95.3413 90.6863 91.9277 88.913 87.583L80.933 67.766H48.88L41.432 86.253C39.836 90.0657 40.0133 93.5237 41.964 96.627C44.0033 99.6417 47.2397 101.238 51.673 101.415V102.745H25.738ZM49.545 66.037H80.268L65.106 27.733L49.545 66.037Z"/>
</mask>
<path d="M12.305 104.607C9.20166 104.607 6.54166 103.499 4.32499 101.282C2.10833 99.0653 0.999993 96.4053 0.999993 93.302C0.999993 90.0213 2.15266 87.317 4.45799 85.189C6.76333 83.061 9.37899 81.997 12.305 81.997C15.231 81.997 17.8467 83.061 20.152 85.189C22.4573 87.317 23.61 90.0213 23.61 93.302C23.61 96.4053 22.5017 99.0653 20.285 101.282C18.0683 103.499 15.4083 104.607 12.305 104.607ZM25.738 102.745V101.415C27.4227 101.238 29.1073 100.44 30.792 99.021C32.5653 97.5137 34.2057 95.6517 35.713 93.435C37.2203 91.2183 38.373 89.046 39.171 86.918L74.283 0.999989H75.48L110.06 86.918C113.961 96.5827 118.306 101.415 123.094 101.415H123.493V102.745H80.933V101.415H81.465C85.455 101.415 88.115 100.218 89.445 97.824C90.8637 95.3413 90.6863 91.9277 88.913 87.583L80.933 67.766H48.88L41.432 86.253C39.836 90.0657 40.0133 93.5237 41.964 96.627C44.0033 99.6417 47.2397 101.238 51.673 101.415V102.745H25.738ZM49.545 66.037H80.268L65.106 27.733L49.545 66.037Z" fill="black"/>
<path d="M4.32499 101.282L5.0321 100.575L5.0321 100.575L4.32499 101.282ZM4.45799 85.189L3.77971 84.4542L3.77971 84.4542L4.45799 85.189ZM20.152 85.189L20.8303 84.4542L20.8303 84.4542L20.152 85.189ZM20.285 101.282L19.5779 100.575L19.5779 100.575L20.285 101.282ZM12.305 104.607V103.607C9.46989 103.607 7.06337 102.606 5.0321 100.575L4.32499 101.282L3.61789 101.989C6.01995 104.391 8.93343 105.607 12.305 105.607V104.607ZM4.32499 101.282L5.0321 100.575C3.00083 98.5436 1.99999 96.1371 1.99999 93.302H0.999993H-6.94767e-06C-6.94767e-06 96.6736 1.21582 99.587 3.61789 101.989L4.32499 101.282ZM0.999993 93.302H1.99999C1.99999 90.286 3.04636 87.8529 5.13627 85.9238L4.45799 85.189L3.77971 84.4542C1.25896 86.781 -6.94767e-06 89.7566 -6.94767e-06 93.302H0.999993ZM4.45799 85.189L5.13627 85.9238C7.27147 83.9528 9.64955 82.997 12.305 82.997V81.997V80.997C9.10843 80.997 6.25518 82.1691 3.77971 84.4542L4.45799 85.189ZM12.305 81.997V82.997C14.9604 82.997 17.3385 83.9528 19.4737 85.9238L20.152 85.189L20.8303 84.4542C18.3548 82.1691 15.5016 80.997 12.305 80.997V81.997ZM20.152 85.189L19.4737 85.9238C21.5636 87.8529 22.61 90.286 22.61 93.302H23.61H24.61C24.61 89.7566 23.351 86.781 20.8303 84.4542L20.152 85.189ZM23.61 93.302H22.61C22.61 96.1371 21.6092 98.5436 19.5779 100.575L20.285 101.282L20.9921 101.989C23.3942 99.587 24.61 96.6736 24.61 93.302H23.61ZM20.285 101.282L19.5779 100.575C17.5466 102.606 15.1401 103.607 12.305 103.607V104.607V105.607C15.6766 105.607 18.59 104.391 20.9921 101.989L20.285 101.282ZM25.738 102.745H24.738V103.745H25.738V102.745ZM25.738 101.415L25.6333 100.42L24.738 100.515V101.415H25.738ZM30.792 99.021L31.4361 99.7859L31.4396 99.7829L30.792 99.021ZM35.713 93.435L36.5399 93.9973L36.5399 93.9973L35.713 93.435ZM39.171 86.918L38.2453 86.5397L38.2398 86.5532L38.2347 86.5669L39.171 86.918ZM74.283 0.999989V-1.09076e-05H73.6114L73.3573 0.621691L74.283 0.999989ZM75.48 0.999989L76.4077 0.626619L76.1555 -1.09076e-05H75.48V0.999989ZM110.06 86.918L109.132 87.2914L109.133 87.2923L110.06 86.918ZM123.493 101.415H124.493V100.415H123.493V101.415ZM123.493 102.745V103.745H124.493V102.745H123.493ZM80.933 102.745H79.933V103.745H80.933V102.745ZM80.933 101.415V100.415H79.933V101.415H80.933ZM89.445 97.824L88.5767 97.3278L88.5708 97.3384L89.445 97.824ZM88.913 87.583L87.9854 87.9565L87.9871 87.9609L88.913 87.583ZM80.933 67.766L81.8606 67.3925L81.6083 66.766H80.933V67.766ZM48.88 67.766V66.766H48.2048L47.9524 67.3923L48.88 67.766ZM41.432 86.253L42.3545 86.6392L42.3595 86.6267L41.432 86.253ZM41.964 96.627L41.1174 97.1592L41.1263 97.1734L41.1357 97.1873L41.964 96.627ZM51.673 101.415H52.673V100.454L51.713 100.416L51.673 101.415ZM51.673 102.745V103.745H52.673V102.745H51.673ZM49.545 66.037L48.6185 65.6606L48.0594 67.037H49.545V66.037ZM80.268 66.037V67.037H81.7393L81.1978 65.6689L80.268 66.037ZM65.106 27.733L66.0358 27.3649L65.118 25.0464L64.1795 27.3566L65.106 27.733ZM25.738 102.745H26.738V101.415H25.738H24.738V102.745H25.738ZM25.738 101.415L25.8427 102.41C27.7779 102.206 29.644 101.295 31.4361 99.7859L30.792 99.021L30.1479 98.2561C28.5706 99.5843 27.0674 100.27 25.6333 100.42L25.738 101.415ZM30.792 99.021L31.4396 99.7829C33.2909 98.2094 34.9895 96.2773 36.5399 93.9973L35.713 93.435L34.8861 92.8727C33.4218 95.0261 31.8398 96.8179 30.1443 98.2591L30.792 99.021ZM35.713 93.435L36.5399 93.9973C38.0842 91.7262 39.2769 89.4835 40.1073 87.2691L39.171 86.918L38.2347 86.5669C37.4691 88.6085 36.3564 90.7104 34.8861 92.8727L35.713 93.435ZM39.171 86.918L40.0967 87.2963L75.2087 1.37829L74.283 0.999989L73.3573 0.621691L38.2453 86.5397L39.171 86.918ZM74.283 0.999989V1.99999H75.48V0.999989V-1.09076e-05H74.283V0.999989ZM75.48 0.999989L74.5523 1.37336L109.132 87.2914L110.06 86.918L110.988 86.5446L76.4077 0.626619L75.48 0.999989ZM110.06 86.918L109.133 87.2923C111.104 92.1755 113.218 95.9202 115.501 98.4593C117.792 101.008 120.325 102.415 123.094 102.415V101.415V100.415C121.075 100.415 119.042 99.4061 116.988 97.1222C114.926 94.829 112.917 91.3251 110.987 86.5437L110.06 86.918ZM123.094 101.415V102.415H123.493V101.415V100.415H123.094V101.415ZM123.493 101.415H122.493V102.745H123.493H124.493V101.415H123.493ZM123.493 102.745V101.745H80.933V102.745V103.745H123.493V102.745ZM80.933 102.745H81.933V101.415H80.933H79.933V102.745H80.933ZM80.933 101.415V102.415H81.465V101.415V100.415H80.933V101.415ZM81.465 101.415V102.415C85.6343 102.415 88.7386 101.155 90.3192 98.3096L89.445 97.824L88.5708 97.3384C87.4914 99.2814 85.2757 100.415 81.465 100.415V101.415ZM89.445 97.824L90.3132 98.3201C91.9604 95.4375 91.6546 91.6537 89.8388 87.2051L88.913 87.583L87.9871 87.9609C89.7181 92.2016 89.7669 95.2451 88.5768 97.3279L89.445 97.824ZM88.913 87.583L89.8406 87.2095L81.8606 67.3925L80.933 67.766L80.0054 68.1395L87.9854 87.9565L88.913 87.583ZM80.933 67.766V66.766H48.88V67.766V68.766H80.933V67.766ZM48.88 67.766L47.9524 67.3923L40.5044 85.8793L41.432 86.253L42.3595 86.6267L49.8075 68.1397L48.88 67.766ZM41.432 86.253L40.5096 85.8669C38.8065 89.9353 38.9694 93.7419 41.1174 97.1592L41.964 96.627L42.8106 96.0948C41.0573 93.3054 40.8655 90.196 42.3544 86.6391L41.432 86.253ZM41.964 96.627L41.1357 97.1873C43.3928 100.524 46.9602 102.227 51.633 102.414L51.673 101.415L51.713 100.416C47.5192 100.248 44.6139 98.7595 42.7923 96.0667L41.964 96.627ZM51.673 101.415H50.673V102.745H51.673H52.673V101.415H51.673ZM51.673 102.745V101.745H25.738V102.745V103.745H51.673V102.745ZM49.545 66.037V67.037H80.268V66.037V65.037H49.545V66.037ZM80.268 66.037L81.1978 65.6689L66.0358 27.3649L65.106 27.733L64.1762 28.101L79.3382 66.405L80.268 66.037ZM65.106 27.733L64.1795 27.3566L48.6185 65.6606L49.545 66.037L50.4715 66.4134L66.0325 28.1094L65.106 27.733Z" fill="black" mask="url(#path-1-outside-1_35_2)"/>
</svg>
