<svg width="180" height="180" viewBox="0 0 180 180" fill="none" xmlns="http://www.w3.org/2000/svg">
<g opacity="0.4">
<path fill-rule="evenodd" clip-rule="evenodd" d="M90 0C40.275 0 0 40.275 0 90C0 129.825 25.7625 163.463 61.5375 175.387C66.0375 176.175 67.725 173.475 67.725 171.113C67.725 168.975 67.6125 161.887 67.6125 154.35C45 158.512 39.15 148.837 37.35 143.775C36.3375 141.188 31.95 133.2 28.125 131.062C24.975 129.375 20.475 125.213 28.0125 125.1C35.1 124.987 40.1625 131.625 41.85 134.325C49.95 147.938 62.8875 144.113 68.0625 141.75C68.85 135.9 71.2125 131.962 73.8 129.712C53.775 127.462 32.85 119.7 32.85 85.275C32.85 75.4875 36.3375 67.3875 42.075 61.0875C41.175 58.8375 38.025 49.6125 42.975 37.2375C42.975 37.2375 50.5125 34.875 67.725 46.4625C74.925 44.4375 82.575 43.425 90.225 43.425C97.875 43.425 105.525 44.4375 112.725 46.4625C129.938 34.7625 137.475 37.2375 137.475 37.2375C142.425 49.6125 139.275 58.8375 138.375 61.0875C144.113 67.3875 147.6 75.375 147.6 85.275C147.6 119.812 126.562 127.462 106.538 129.712C109.8 132.525 112.613 137.925 112.613 146.363C112.613 158.4 112.5 168.075 112.5 171.113C112.5 173.475 114.188 176.288 118.688 175.387C154.238 163.463 180 129.712 180 90C180 40.275 139.725 0 90 0Z" fill="white"/>
</g>
</svg>
