<svg width="60" height="63" viewBox="0 0 60 63" fill="none" xmlns="http://www.w3.org/2000/svg">
<path d="M58.5343 26.6747L33.5344 1.475C32.5968 0.530538 31.3255 0 30 0C28.6745 0 27.4032 0.530538 26.4656 1.475L1.46565 26.6747C0.999106 27.1415 0.629276 27.6971 0.377667 28.3092C0.126058 28.9214 -0.0023083 29.5778 3.14171e-05 30.2404V60.48C3.14171e-05 61.1484 0.263424 61.7893 0.732264 62.2619C1.2011 62.7345 1.83699 63 2.50003 63H57.5C58.163 63 58.7989 62.7345 59.2677 62.2619C59.7366 61.7893 60 61.1484 60 60.48V30.2404C60.0023 29.5778 59.8739 28.9214 59.6223 28.3092C59.3707 27.6971 59.0009 27.1415 58.5343 26.6747ZM55 57.9601H5.00003V30.2404L30 5.04075L55 30.2404V57.9601Z" fill="white"/>
</svg>
