<svg width="209" height="180" viewBox="0 0 209 180" fill="none" xmlns="http://www.w3.org/2000/svg">
<g opacity="0.4" clip-path="url(#clip0_6_191)">
<path d="M74.613 5.64402C64.7482 7.69254 57.7676 11.2461 51.623 17.3498C43.9318 24.9586 39.1248 34.6159 37.411 45.9872C36.0316 54.892 36.1988 66.5142 37.8708 76.7568C38.4978 80.9374 40.4624 89.9258 40.7132 90.2185C40.9222 90.3857 49.0732 91.8489 67.925 95.1516C73.9024 96.155 81.719 97.5764 85.272 98.2035C95.3458 100.085 95.304 100.085 95.304 99.0396C95.304 98.5798 94.1754 95.2352 92.7542 91.6399C88.9922 81.9408 87.5292 77.5093 85.5228 69.3989C80.5068 49.5408 81.6772 36.3718 89.1176 28.2195C92.0854 24.9586 97.9792 22.1994 104.709 20.8616C109.474 19.9 122.474 20.1091 131.336 21.2796C138.86 22.283 141.535 22.2412 141.995 21.0706C142.371 20.0254 141.242 19.1893 136.268 16.8482C126.529 12.2494 117.667 9.15576 107.928 6.94002C96.976 4.38982 83.0566 3.84634 74.613 5.64402Z" fill="white"/>
<path d="M106.172 35.1594C100.236 35.8283 94.8024 39.5491 92.3362 44.5658C90.497 48.2866 90.2462 52.3418 91.5002 57.2332C92.9632 62.8353 95.1786 66.4306 99.9438 70.8203C106.883 77.2585 114.198 80.1013 123.017 79.7669C128.242 79.5578 131.001 78.7217 134.471 76.3387C139.069 73.2033 141.075 68.8554 141.075 62.2918C141.033 58.8218 140.866 57.9439 139.737 55.3101C135.432 45.2347 123.812 36.5808 113.069 35.3266C111.69 35.1594 110.268 34.9922 109.934 34.9503C109.6 34.8667 107.886 34.9922 106.172 35.1594Z" fill="white"/>
<path d="M146.3 41.4304C146.3 42.5173 147.22 45.9455 148.599 49.9171C150.982 56.8988 151.734 60.5777 151.734 65.2182C151.734 79.516 140.323 91.7235 121.011 98.0781C109.265 101.924 97.6448 103.304 83.182 102.51C70.8092 101.841 65.6678 101.005 50.0764 97.0748C44.8514 95.7788 40.5042 94.8172 40.3788 94.9426C40.1698 95.1517 43.4302 103.973 53.5458 130.645C55.385 135.453 57.4332 140.846 58.0602 142.56C59.0634 145.194 66.5874 164.968 67.507 167.351C67.8832 168.229 67.8414 168.229 77.4554 166.348C116.079 158.781 145.213 142.811 160.136 121.155C163.313 116.515 167.911 107.108 169.624 101.757C174.808 85.4944 170.46 66.3888 158.004 51.004C154.033 46.0291 148.348 40.218 147.261 39.9253C146.384 39.6745 146.3 39.7999 146.3 41.4304Z" fill="white"/>
</g>
<defs>
<clipPath id="clip0_6_191">
<rect width="209" height="180" fill="white"/>
</clipPath>
</defs>
</svg>
