<svg width="180" height="180" viewBox="0 0 180 180" fill="none" xmlns="http://www.w3.org/2000/svg">
<g opacity="0.4" clip-path="url(#clip0_6_206)">
<path d="M125.228 57.014C126.913 57.3596 127.792 56.7897 129.231 56.9257C130.737 57.0681 131.496 56.9922 132.985 56.9697C134.853 56.9539 136.72 56.9669 138.587 57.009C140.471 57.0562 142.438 57.5128 144.221 57.3223C144.405 57.3026 144.606 57.2337 144.86 57.2098C154.527 58.3158 163.369 63.1892 169.467 70.7724C175.755 78.7138 178.107 89.087 179.316 98.9343C179.521 100.604 179.405 102.574 179.724 104.307C179.87 105.101 179.749 105.992 180 106.82V177.455C179.111 179.345 178.793 179.215 177.088 180H140.667C136.968 179.045 137.719 175.664 137.636 172.701C137.622 172.195 137.637 171.681 137.638 171.175L137.644 164.58L137.643 129.913L137.642 119.375C137.642 116.928 137.705 113.998 137.596 111.58C137.507 109.592 136.955 106.583 136.641 104.641C136.278 102.387 134.823 98.8112 133.324 97.0671C130.436 93.7076 126.389 93.0818 122.227 92.7717C121.2 92.6951 120.489 92.8716 119.506 92.9342C116.05 93.1535 112.48 94.2511 109.806 96.5496C106.625 99.2851 105.025 104.287 104.342 108.332C103.914 110.861 103.74 113.919 103.751 116.467C103.756 117.455 103.511 118.662 103.504 119.679C103.486 122.71 103.493 125.756 103.495 128.787L103.498 161.079L103.496 170.915C103.496 173.419 103.557 175.749 103.344 178.249C102.377 179.533 101.949 179.266 100.852 180H64.2329C62.2181 179.265 61.3547 178.205 61.3427 175.96C61.3273 173.05 61.3434 170.138 61.3459 167.227L61.3491 150.292L61.3473 98.0958V72.0957L61.3389 64.7406C61.3276 62.4312 60.8017 57.8676 64.2867 57.8152C66.6693 57.7793 69.0722 57.8222 71.4586 57.8208L87.0071 57.8198L95.5093 57.811C96.9159 57.8092 98.5651 57.747 99.9478 57.9059C100.882 58.0135 101.454 58.8354 101.946 59.5631C102.163 61.7485 101.907 65.0317 102.228 66.9277C102.799 66.2724 103.724 65.6093 104.422 65.063C110.458 60.3338 117.89 58.2473 125.228 57.014Z" fill="white"/>
<path d="M3.3826 59.1599C3.65806 58.7243 4.38678 58.0114 4.88846 57.9375C6.48884 57.7023 8.51514 57.8075 10.1487 57.8152L18.2456 57.8187L34.0791 57.8201C36.7179 57.8198 39.3894 57.7941 42.0293 57.8257C42.7335 57.8342 43.065 57.9361 43.6553 58.2466C44.2656 58.5675 44.9452 59.6279 44.9828 60.273C45.1262 62.748 45.0696 65.8118 45.07 68.2538L45.0682 89.5732L45.0679 148.251L45.0686 167.622C45.0689 170.531 45.0668 173.446 45.0858 176.349C45.0946 177.672 44.7968 178.634 43.6549 179.346C43.2253 179.615 42.7043 179.752 42.3362 180H5.73287C4.73641 179.6 4.04362 179.288 3.35669 178.422C3.43211 178.15 3.35522 174.743 3.35528 174.189L3.35588 158.653L3.35757 87.1816L3.35724 67.4364L3.34751 62.4484C3.33632 61.4296 3.23953 60.1285 3.3826 59.1599Z" fill="white"/>
<path d="M23.68 0H24.2984C24.9637 0.154251 25.5221 0.151651 26.1863 0.238358C27.329 0.387503 28.5167 0.546799 29.637 0.809082C35.5743 2.25222 40.7355 5.90966 44.0652 11.0331C51.2923 22.1525 48.1008 37.1131 36.9453 44.3197C31.4502 47.8013 24.7957 48.953 18.4502 47.5214C10.2275 45.7436 2.90369 38.591 0.801366 30.4569C0.557392 29.513 0.385073 27.6657 0 26.8687V21.5482C0.379202 20.5053 0.469368 19.0783 0.726349 17.9825C1.2793 15.6247 2.27161 13.5968 3.50995 11.5666C5.98827 7.50365 9.13662 4.58227 13.4657 2.54859C14.9997 1.72999 16.5309 1.21867 18.2021 0.763446C19.8541 0.313474 22.1136 0.419164 23.68 0Z" fill="white"/>
<path d="M3.38259 59.1599C3.23952 60.1285 3.33631 61.4296 3.3475 62.4484L3.35722 67.4364L3.35756 87.1816L3.35586 158.653L3.35527 174.189C3.35521 174.743 3.4321 178.15 3.35668 178.422C3.0308 177.966 2.97423 177.725 2.97175 177.153C2.96102 174.679 2.96635 172.201 2.96639 169.728L2.96654 155.126L2.96743 111.518L2.96637 77.7924L2.96534 66.6039C2.96529 64.5729 2.9487 62.5237 2.98739 60.4934C2.99864 59.9028 2.98656 59.5684 3.38259 59.1599Z" fill="white"/>
<path d="M125.228 57.0139C128.353 56.6303 131.008 56.2805 134.188 56.3997C136.458 56.4848 138.419 56.3536 140.724 56.7235C142.041 56.9348 143.494 56.8961 144.86 57.2097C144.606 57.2336 144.405 57.3025 144.222 57.3222C142.438 57.5127 140.471 57.056 138.587 57.0089C136.72 56.9667 134.853 56.9537 132.985 56.9696C131.496 56.9921 130.737 57.068 129.231 56.9256C127.792 56.7896 126.913 57.3594 125.228 57.0139Z" fill="white"/>
</g>
<defs>
<clipPath id="clip0_6_206">
<rect width="180" height="180" fill="white"/>
</clipPath>
</defs>
</svg>
