<svg width="60" height="58" viewBox="0 0 60 58" fill="none" xmlns="http://www.w3.org/2000/svg">
<path d="M59.6598 54.4708C55.2708 46.8431 48.5071 41.3736 40.6138 38.7808C44.5182 36.4443 47.5517 32.884 49.2484 28.6467C50.9451 24.4093 51.2112 19.7293 50.0059 15.3252C48.8005 10.9211 46.1904 7.03648 42.5763 4.26794C38.9621 1.4994 34.5439 0 30 0C25.4561 0 21.0379 1.4994 17.4237 4.26794C13.8096 7.03648 11.1995 10.9211 9.99413 15.3252C8.78879 19.7293 9.05491 24.4093 10.7516 28.6467C12.4483 32.884 15.4818 36.4443 19.3862 38.7808C11.4929 41.3707 4.72919 46.8402 0.340161 54.4708C0.179208 54.7346 0.0724482 55.0282 0.026182 55.3342C-0.0200842 55.6401 -0.00492007 55.9523 0.0707797 56.2523C0.14648 56.5523 0.281182 56.834 0.466938 57.0808C0.652695 57.3276 0.885743 57.5345 1.15233 57.6893C1.41892 57.8441 1.71366 57.9436 2.01914 57.9821C2.32462 58.0205 2.63467 57.997 2.93099 57.9131C3.22731 57.8291 3.5039 57.6863 3.74444 57.4932C3.98497 57.3 4.18459 57.0603 4.3315 56.7884C9.76088 47.3559 19.3574 41.7242 30 41.7242C40.6426 41.7242 50.2391 47.3559 55.6685 56.7884C55.8154 57.0603 56.015 57.3 56.2556 57.4932C56.4961 57.6863 56.7727 57.8291 57.069 57.9131C57.3653 57.997 57.6754 58.0205 57.9809 57.9821C58.2863 57.9436 58.5811 57.8441 58.8477 57.6893C59.1143 57.5345 59.3473 57.3276 59.5331 57.0808C59.7188 56.834 59.8535 56.5523 59.9292 56.2523C60.0049 55.9523 60.0201 55.6401 59.9738 55.3342C59.9275 55.0282 59.8208 54.7346 59.6598 54.4708ZM13.8617 20.866C13.8617 17.6574 14.8082 14.5209 16.5815 11.853C18.3548 9.18515 20.8753 7.10581 23.8241 5.87793C26.773 4.65004 30.0179 4.32878 33.1484 4.95474C36.2789 5.58071 39.1545 7.1258 41.4115 9.39463C43.6685 11.6635 45.2055 14.5541 45.8282 17.7011C46.4509 20.848 46.1313 24.1099 44.9098 27.0743C43.6883 30.0387 41.6199 32.5723 38.9659 34.355C36.312 36.1376 33.1918 37.089 30 37.089C25.7213 37.0844 21.6191 35.3737 18.5936 32.3323C15.5681 29.2909 13.8663 25.1672 13.8617 20.866Z" fill="#848484"/>
</svg>
