<svg width="60" height="68" viewBox="0 0 60 68" fill="none" xmlns="http://www.w3.org/2000/svg">
<path d="M60 43.5341V65.2782C60 66 59.7127 66.6924 59.2012 67.2028C58.6897 67.7132 57.996 68 57.2727 68H2.72727C2.00396 68 1.31026 67.7132 0.7988 67.2028C0.287337 66.6924 0 66 0 65.2782V43.5341C0 42.8122 0.287337 42.1199 0.7988 41.6095C1.31026 41.099 2.00396 40.8123 2.72727 40.8123C3.45059 40.8123 4.14428 41.099 4.65575 41.6095C5.16721 42.1199 5.45455 42.8122 5.45455 43.5341V62.5563H54.5455V43.5341C54.5455 42.8122 54.8328 42.1199 55.3443 41.6095C55.8557 41.099 56.5494 40.8123 57.2727 40.8123C57.996 40.8123 58.6897 41.099 59.2012 41.6095C59.7127 42.1199 60 42.8122 60 43.5341ZM16.3636 54.4214H43.6364C44.3597 54.4214 45.0534 54.1347 45.5648 53.6242C46.0763 53.1138 46.3636 52.4215 46.3636 51.6996C46.3636 50.9777 46.0763 50.2854 45.5648 49.775C45.0534 49.2645 44.3597 48.9778 43.6364 48.9778H16.3636C15.6403 48.9778 14.9466 49.2645 14.4352 49.775C13.9237 50.2854 13.6364 50.9777 13.6364 51.6996C13.6364 52.4215 13.9237 53.1138 14.4352 53.6242C14.9466 54.1347 15.6403 54.4214 16.3636 54.4214ZM18.0273 36.3893L44.3693 43.4252C44.6004 43.4884 44.8388 43.5204 45.0784 43.5205C45.7363 43.5153 46.3701 43.2729 46.863 42.8381C47.3559 42.4032 47.6747 41.8052 47.7606 41.1543C47.8466 40.5034 47.6939 39.8434 47.3306 39.2959C46.9674 38.7485 46.4181 38.3506 45.7841 38.1755L19.4318 31.1225C19.076 30.9914 18.6966 30.9357 18.318 30.9591C17.9394 30.9826 17.5699 31.0845 17.233 31.2586C16.8961 31.4326 16.5993 31.6749 16.3616 31.9699C16.1239 32.2649 15.9504 32.6062 15.8523 32.9719C15.7542 33.3376 15.7336 33.7197 15.7919 34.0938C15.8501 34.4679 15.986 34.8257 16.1906 35.1444C16.3953 35.4632 16.6644 35.7358 16.9806 35.9449C17.2969 36.1539 17.6534 36.2949 18.0273 36.3587V36.3893ZM24.317 19.4016L47.9352 33.0108C48.2455 33.1896 48.5879 33.3056 48.9431 33.3523C49.2983 33.399 49.6592 33.3753 50.0052 33.2828C50.3512 33.1902 50.6756 33.0305 50.9598 32.8128C51.2439 32.5951 51.4823 32.3236 51.6614 32.0139C52.021 31.3893 52.1178 30.6478 51.9306 29.952C51.7433 29.2562 51.2873 28.6628 50.6625 28.302L27.0443 14.6758C26.7339 14.4789 26.3868 14.3467 26.0238 14.2871C25.6609 14.2275 25.2896 14.2418 24.9324 14.3292C24.5751 14.4165 24.2392 14.5751 23.945 14.7953C23.6507 15.0155 23.4041 15.2929 23.22 15.6107C23.0359 15.9285 22.9182 16.2802 22.8738 16.6446C22.8295 17.009 22.8594 17.3786 22.9619 17.7312C23.0644 18.0838 23.2373 18.412 23.4702 18.6961C23.7031 18.9803 23.9911 19.2145 24.317 19.3846V19.4016ZM54.0886 23.8246C54.342 24.0779 54.6429 24.279 54.9742 24.4163C55.3054 24.5535 55.6605 24.6244 56.0192 24.6247C56.3778 24.625 56.7331 24.5548 57.0645 24.4181C57.396 24.2814 57.6973 24.0809 57.9511 23.828C58.205 23.5751 58.4064 23.2748 58.544 22.9442C58.6815 22.6137 58.7525 22.2593 58.7528 21.9013C58.7531 21.5434 58.6828 21.1889 58.5458 20.858C58.4089 20.5272 58.2079 20.2265 57.9545 19.9732L38.6693 0.750251C38.1541 0.260887 37.4678 -0.00826087 36.7566 0.000193302C36.0454 0.00864747 35.3657 0.294035 34.8623 0.795506C34.3589 1.29698 34.0718 1.97486 34.0621 2.6846C34.0523 3.39435 34.3208 4.07982 34.8102 4.59484L54.0886 23.8246Z" fill="#848484"/>
</svg>
